<?xml version="1.0" encoding="UTF-8" standalone="no"?>
<svg width="425px" height="595px" viewBox="0 0 425 595" version="1.1" xmlns="http://www.w3.org/2000/svg" xmlns:xlink="http://www.w3.org/1999/xlink">
    <!-- Generator: Sketch 3.8.2 (29753) - http://www.bohemiancoding.com/sketch -->
    <title>Slice 1</title>
    <desc>Created with Sketch.</desc>
    <defs></defs>
    <g id="Page-1" stroke="none" stroke-width="1" fill="none" fill-rule="evenodd">
        <g id="chairMask" transform="translate(1.000000, 0.000000)" stroke-width="1" stroke="#FFFFFF">
            <g id="Page-1">
                <path d="M153.4,2.6 C168.2,1.6 183.2,-0.4 197.9,2.1 C219.3,5.4 238.7,16.9 253.9,32.1 C268.4,46 277.7,64.5 283.4,83.6 C296.8,125.2 309.4,167.1 322.2,208.9 C324.1,217.1 328.3,224.4 332.2,231.8 C333.4,234.3 330.9,236.8 331.6,239.4 C332.5,243.3 333.8,247.1 335.2,250.8 C350.5,254.9 366.2,257.5 381.6,261.5 C385.6,262.4 389.7,264.5 391.5,268.5 C392.6,271.3 392.4,274.4 392.5,277.4 C392.6,282.2 393,287.1 392.6,291.9 C392.6,294.8 389.4,296.1 387.2,297.1 C375.9,301.4 363.6,301.3 352,304.1 C352.4,306.2 352.8,308.4 353.5,310.4 C374.9,379.4 395.4,448.6 416.2,517.7 C417.9,523.7 421.8,529 422.9,535.2 C424,537.7 421.5,539.5 419.8,540.8 C416.3,543.3 410.9,544.5 407.4,541.6 C404.4,536.1 404.7,529.7 403.1,523.8 C395.6,498.7 388.1,473.6 380.5,448.4 C377.5,438.9 375.1,429.2 371.8,419.8 C367,419.1 362.2,420.5 357.4,421.3 C330.9,426.4 304.4,431.1 277.9,435.8 C271.4,437.1 264.8,437.8 258.3,439.4 C257,444.3 256.2,449.3 255.3,454.2 C254.3,460 255.6,466.4 252.7,471.7 C248.4,474.8 240.7,473.8 238.3,468.7 C238,463.5 240.4,458.7 241.8,453.9 C243.1,450.1 243.5,446 244,442.1 C229,444 214.3,447.1 199.4,449.4 C178.6,453 157.8,456.4 137.1,460.3 C137,461.7 137,463.2 137.4,464.6 C147.6,499.8 157.6,535.1 167.6,570.4 C169.6,575.7 172.8,580.5 173.6,586.2 C174.2,588.7 171.9,590.7 169.9,591.9 C166.2,593.9 161.3,594.8 157.5,592.6 C154,587.2 154.5,580.6 153.4,574.6 C141.1,531.5 128.8,488.5 116.7,445.3 C112.4,430.4 108.7,415.2 104,400.4 C85.1,403 66.3,406 47.4,408.6 C41.5,409.6 35.4,409.8 29.6,411.4 C25,439.7 21.6,468.2 17.5,496.6 C17,502.5 18.6,508.7 16.4,514.4 C12.3,518.9 3.3,517.5 0.8,511.9 C0.1,505.4 3.7,499.6 4.5,493.3 C12.5,432.1 20.7,371 30.2,310.1 C34.2,283.7 38.3,257.4 42.2,231 C42.4,227.7 39.2,225.3 39.7,222 C39.7,219.4 42.6,218.6 44.2,217 C44.9,214.4 44.1,211.6 45,208.9 C46.5,203.8 48.4,198.4 47.1,193 C40.1,166.7 33,140.4 25.8,114.2 C22.7,101.7 19.8,89 20.7,76 C21.2,50.1 37.5,24.9 61.4,14.5 C74.1,8.8 88.2,7.7 101.8,6.7 C119,5.2 136.2,3.9 153.4,2.6 L153.4,2.6 L153.4,2.6 Z M181,125.5 C152.8,125.8 124.8,130 97.4,136.5 C85.3,139.6 73.2,142.9 61,146 C57.5,146.9 53.9,147.4 50.7,149 C58.6,181.8 68.6,214.1 77.3,246.7 C78.5,250.2 80.8,253.2 82.4,256.6 C83.3,258.5 85.8,257.5 87.4,257.5 C132.2,252.2 177,246 221.8,240.7 C236.2,239 250.6,237 265.1,238.1 C270.3,238.3 275.5,239.4 280.8,239.8 C283.1,227.3 285.1,214.7 287.3,202.2 C288.3,198.6 284.3,195.8 285.1,192.2 C285.1,189.1 290,189.9 289.9,187 C289.8,183.1 290.3,179.4 291.8,175.9 C292.8,171.8 295.4,167.6 293.8,163.4 C289.8,150.8 286,138.2 282.3,125.7 C280.5,125.4 278.8,125.2 277.1,125.3 C264.4,125.5 251.7,124.9 239,125 C219.7,125.2 200.3,124.2 181,125.5 L181,125.5 L181,125.5 Z M302.1,199.8 C301.3,202.8 300,206.2 302.1,208.9 C305,213 307.6,217.3 310.9,221 C309.9,215.4 308.1,210 306.3,204.7 C305.6,202.5 304.1,200.8 302.1,199.8 L302.1,199.8 L302.1,199.8 Z M299.2,216 C297.3,224.7 295.9,233.4 294.6,242.1 C297,243.7 299.9,243.9 302.7,244.5 C308.2,245.3 313.4,246.9 318.9,247.2 C318.2,244.2 318.3,240.4 315.5,238.6 C311.3,235.7 308.4,231.5 305.5,227.5 C303,223.9 301.8,219.6 299.2,216 L299.2,216 L299.2,216 Z M61.9,249.1 C60.8,243 59,237 57.5,231 C53.8,237.1 57,244.7 61.9,249.1 L61.9,249.1 L61.9,249.1 Z M54.1,251 C53,254.7 52.6,258.5 52.7,262.3 C55,262.2 57.2,261.8 59.2,261 C57.9,257.5 56.5,253.9 54.1,251 L54.1,251 L54.1,251 Z M47.2,293.2 C45.3,306.2 43.1,319.1 41.1,332.1 C40.5,335.7 39.8,339.3 39.9,343 C55.3,341.4 70.6,338.7 85.9,336.7 C86.1,331.7 83.7,327 82.7,322.2 C80.7,315.8 79.5,309.2 77,303 C67.5,298.9 56.3,298.8 47.2,293.2 L47.2,293.2 L47.2,293.2 Z M285.9,313.9 C284.3,314.2 281.5,314 281.5,316.4 C276.9,341.1 272.2,365.7 267.5,390.4 C265.2,403.5 262.1,416.6 260.2,429.7 C295,423.8 329.8,417.4 364.6,411.4 C365.9,411.2 367.2,410.5 368.5,410.1 C368.2,408.5 368.1,406.9 367.6,405.4 C357.9,373.5 348.2,341.5 338.5,309.6 C338.1,308.5 337.6,307.5 337.1,306.5 C319.9,308.2 303,311.6 285.9,313.9 L285.9,313.9 L285.9,313.9 Z M94.2,307.7 C95.9,315.4 98.4,323 100.3,330.6 C100.8,332 100.9,334.7 103,334.2 C121.7,331.7 140.4,328.8 159.2,326.2 C160.9,325.9 162.9,325.9 164,324.5 C146.8,321.2 130,316.1 113,312 C106.7,310.7 100.6,308.3 94.2,307.7 L94.2,307.7 L94.2,307.7 Z M246.8,321.7 C215.3,326.4 183.9,331.1 152.4,335.6 C136.3,338.2 120.1,340.1 104.1,343 C105.1,348.4 106.8,353.5 108.2,358.8 C111.2,369 113.3,379.4 117,389.4 C135.8,386.9 154.5,383.3 173.3,380.3 C200.4,375.7 227.7,371.5 254.8,366.8 C258.5,366.7 259.5,362.9 259.9,359.9 C262.2,346.3 265.1,332.7 267,319 C260.2,319.2 253.5,321 246.8,321.7 L246.8,321.7 L246.8,321.7 Z M49.9,350.6 C46.1,351.1 42.1,351.2 38.4,352.3 C37.3,356.5 36.9,360.8 36.2,365.1 C34.6,377.4 32,389.6 31,402 C36.4,401.7 41.7,400.8 47.1,400 C65.3,397.2 83.5,394.9 101.7,391.8 C100.8,386.5 98.9,381.5 97.6,376.4 C94.6,366 92.1,355.4 88.8,345.1 C75.8,346.6 62.9,348.8 49.9,350.6 L49.9,350.6 L49.9,350.6 Z M246.4,376.4 C209.6,382.6 172.8,389 136,395 C130.4,396.2 124.7,396.5 119.2,398.1 C122.3,410.7 126.1,423.1 129.4,435.6 C131,440.8 131.9,446.1 134.1,451.1 C138.8,450.7 143.4,449.7 148,449 C168.5,445.6 189.1,442.2 209.6,438.6 C221.7,436.3 234,434.8 246.1,432.1 C247.6,426 248.4,419.8 249.7,413.7 C252,400.8 254.9,388 256.8,375.1 C253.3,375.3 249.9,375.8 246.4,376.4 L246.4,376.4 L246.4,376.4 Z" id="Shape"></path>
            </g>
        </g>
    </g>
</svg>
